<?xml version="1.0" encoding="UTF-8"?>
<svg version="1.1" xmlns="http://www.w3.org/2000/svg" width="32" height="32">
<path d="M0 0 C10.56 0 21.12 0 32 0 C32 10.56 32 21.12 32 32 C21.44 32 10.88 32 0 32 C0 21.44 0 10.88 0 0 Z " fill="#7E4E20" transform="translate(0,0)"/>
<path d="M0 0 C0 10.56 0 21.12 0 32 C-5.28 31.67 -10.56 31.34 -16 31 C-16 29.02 -16 27.04 -16 25 C-12.04 24.505 -12.04 24.505 -8 24 C-8 21.69 -8 19.38 -8 17 C-10.64 16.67 -13.28 16.34 -16 16 C-16 13.69 -16 11.38 -16 9 C-18.97 8.67 -21.94 8.34 -25 8 C-25 5.69 -25 3.38 -25 1 C-22.52103819 0.82966643 -20.04190368 0.66367161 -17.5625 0.5 C-16.87478516 0.45230469 -16.18707031 0.40460937 -15.47851562 0.35546875 C-10.28404813 0.01722436 -5.23206782 0 0 0 Z " fill="#9A6B16" transform="translate(32,0)"/>
<path d="M0 0 C4.62 0 9.24 0 14 0 C14 2.31 14 4.62 14 7 C11.03 7 8.06 7 5 7 C5 9.64 5 12.28 5 15 C7.97 15.33 10.94 15.66 14 16 C14 17.98 14 19.96 14 22 C9.05 22 4.1 22 -1 22 C-1.13392857 6.86607143 -1.13392857 6.86607143 0 0 Z " fill="#A17314" transform="translate(1,9)"/>
<path d="M0 0 C4.95 0 9.9 0 15 0 C15 1.98 15 3.96 15 6 C10.05 6 5.1 6 0 6 C0 4.02 0 2.04 0 0 Z " fill="#FCC92D" transform="translate(8,17)"/>
<path d="M0 0 C4.95 0 9.9 0 15 0 C15 1.98 15 3.96 15 6 C10.05 6 5.1 6 0 6 C0 4.02 0 2.04 0 0 Z " fill="#FCC92D" transform="translate(8,1)"/>
<path d="M0 0 C4.62 0 9.24 0 14 0 C14 1.98 14 3.96 14 6 C9.38 6 4.76 6 0 6 C0 4.02 0 2.04 0 0 Z " fill="#FCC92E" transform="translate(17,9)"/>
<path d="M0 0 C4.29 0 8.58 0 13 0 C13 2.31 13 4.62 13 7 C8.71 6.67 4.42 6.34 0 6 C0 4.02 0 2.04 0 0 Z " fill="#FCCA30" transform="translate(2,9)"/>
<path d="M0 0 C4.62 0 9.24 0 14 0 C14 1.98 14 3.96 14 6 C7.07 5.505 7.07 5.505 0 5 C0 3.35 0 1.7 0 0 Z " fill="#FCCB34" transform="translate(17,25)"/>
<path d="M0 0 C4.29 0 8.58 0 13 0 C13 1.98 13 3.96 13 6 C8.71 5.67 4.42 5.34 0 5 C0 3.35 0 1.7 0 0 Z " fill="#FCCB34" transform="translate(2,25)"/>
<path d="M0 0 C1.98 0 3.96 0 6 0 C6 2.31 6 4.62 6 7 C3.03 6.505 3.03 6.505 0 6 C0 4.02 0 2.04 0 0 Z " fill="#FBCD3C" transform="translate(25,17)"/>
<path d="M0 0 C1.98 0 3.96 0 6 0 C6 2.31 6 4.62 6 7 C3.03 6.505 3.03 6.505 0 6 C0 4.02 0 2.04 0 0 Z " fill="#FBCD3C" transform="translate(25,1)"/>
<path d="M0 0 C1.32 0 2.64 0 4 0 C4 1.98 4 3.96 4 6 C2.68 6 1.36 6 0 6 C0 4.02 0 2.04 0 0 Z " fill="#FBCE43" transform="translate(2,17)"/>
<path d="M0 0 C1.32 0 2.64 0 4 0 C4 1.98 4 3.96 4 6 C2.68 6 1.36 6 0 6 C0 4.02 0 2.04 0 0 Z " fill="#FBCE43" transform="translate(2,1)"/>
</svg>
