<?xml version="1.0" standalone="no"?>
<!DOCTYPE svg PUBLIC "-//W3C//DTD SVG 20010904//EN"
 "http://www.w3.org/TR/2001/REC-SVG-20010904/DTD/svg10.dtd">
<svg version="1.0" xmlns="http://www.w3.org/2000/svg"
 width="512.000000pt" height="512.000000pt" viewBox="0 0 512.000000 512.000000"
 preserveAspectRatio="xMidYMid meet">
<metadata>
Created by potrace 1.16, written by Peter Selinger 2001-2019
</metadata>
<g transform="translate(0.000000,512.000000) scale(0.100000,-0.100000)"
fill="#000000" stroke="none">
<path d="M907 5024 c-106 -23 -235 -73 -252 -97 -8 -12 -15 -37 -15 -56 0 -33
20 -56 274 -311 l273 -275 -30 -146 -29 -147 -147 -29 -146 -30 -275 273
c-255 254 -278 274 -311 274 -54 0 -74 -22 -108 -114 -52 -145 -64 -228 -58
-405 4 -132 9 -170 31 -246 107 -357 365 -613 723 -721 80 -24 109 -27 328
-34 228 -6 244 -8 324 -35 102 -35 205 -101 286 -184 l60 -61 -676 -678 -676
-677 -201 -567 c-120 -336 -202 -581 -202 -602 0 -47 29 -76 76 -76 21 0 266
82 602 202 l567 201 677 676 678 676 66 -65 c81 -80 144 -180 180 -285 27 -76
28 -91 31 -280 2 -110 8 -229 13 -263 55 -331 277 -624 582 -767 137 -64 235
-87 403 -92 172 -6 273 8 411 58 92 34 114 54 114 108 0 33 -20 56 -274 311
l-273 275 30 146 29 147 147 29 146 30 276 -274 c247 -245 279 -273 308 -273
48 0 70 16 92 68 90 209 107 479 44 697 -103 355 -361 613 -721 721 -82 25
-109 27 -329 34 -226 6 -245 8 -320 34 -105 36 -205 99 -285 180 l-65 66 816
818 c505 506 828 837 848 869 146 234 111 544 -84 738 -194 195 -504 230 -738
84 -32 -20 -365 -344 -869 -848 l-818 -816 -66 65 c-81 80 -144 180 -180 285
-26 75 -28 94 -34 320 -7 220 -9 247 -34 329 -108 360 -362 614 -722 722 -78
24 -109 27 -259 30 -126 3 -188 0 -238 -12z m3727 -187 c90 -45 165 -122 209
-214 30 -63 32 -76 32 -174 0 -101 -1 -108 -37 -180 -20 -40 -55 -92 -78 -114
l-40 -40 -302 303 -303 302 39 39 c43 44 133 96 192 111 22 5 79 8 127 6 77
-3 97 -8 161 -39z m-3314 13 c250 -60 472 -239 585 -473 70 -145 76 -181 85
-452 9 -267 16 -304 81 -444 44 -95 95 -167 183 -259 l60 -63 -176 -176 -176
-176 -76 70 c-90 84 -161 133 -259 178 -129 59 -180 68 -414 72 -183 3 -225 7
-307 28 -308 78 -553 323 -632 632 -33 133 -33 336 2 432 3 10 85 -65 242
-222 232 -231 239 -237 278 -237 39 0 410 71 447 85 10 4 22 16 28 26 14 28
89 406 89 453 0 39 -6 46 -237 278 -158 158 -232 239 -222 242 85 32 298 34
419 6z m2980 -555 l295 -295 -58 -57 -57 -58 -297 297 -298 298 55 55 c30 30
57 55 60 55 3 0 138 -133 300 -295z m-240 -240 l295 -295 -58 -57 -57 -58
-297 297 -298 298 55 55 c30 30 57 55 60 55 3 0 138 -133 300 -295z m-480 0
l55 -55 -1354 -1354 -1353 -1353 -37 7 c-20 5 -63 14 -95 20 l-59 12 1389
1389 c764 764 1391 1389 1394 1389 3 0 30 -25 60 -55z m245 -235 l60 -60
-1360 -1360 -1360 -1360 -62 0 -63 0 0 62 0 63 1357 1357 c747 747 1360 1358
1363 1358 3 0 32 -27 65 -60z m235 -245 l55 -55 -1390 -1390 c-764 -764 -1390
-1388 -1392 -1386 -2 1 -11 43 -22 92 l-18 89 1351 1353 c743 743 1353 1352
1356 1352 3 0 30 -25 60 -55z m-859 -1301 c69 -73 186 -158 274 -200 144 -67
191 -76 425 -80 249 -5 346 -23 481 -91 234 -117 409 -335 469 -583 29 -124
27 -329 -6 -419 -3 -10 -85 65 -242 222 -232 231 -239 237 -278 237 -39 0
-410 -71 -447 -85 -10 -4 -22 -16 -28 -26 -14 -28 -89 -406 -89 -453 0 -39 6
-46 236 -277 130 -130 232 -239 228 -242 -26 -15 -139 -29 -232 -28 -393 1
-740 274 -838 658 -21 84 -24 118 -24 277 0 220 -18 321 -79 452 -46 98 -96
169 -185 262 l-60 63 174 174 c96 96 177 175 180 175 4 0 22 -16 41 -36z
m-2451 -1119 c68 -14 124 -25 126 -25 2 0 4 -47 4 -105 0 -142 3 -145 144
-145 99 0 104 -1 109 -22 16 -67 48 -240 45 -242 -2 -2 -93 -35 -203 -74
l-200 -71 -152 152 -152 152 72 202 c40 112 75 203 78 203 3 0 61 -11 129 -25z
m-192 -761 c-18 -7 -83 -30 -145 -52 l-111 -40 40 111 c22 62 45 127 51 145
l11 33 93 -93 93 -93 -32 -11z"/>
<path d="M1482 3904 c-60 -30 -243 -220 -267 -277 -22 -54 -19 -158 6 -212 24
-50 76 -100 125 -121 56 -23 152 -18 212 12 60 30 236 211 264 272 25 54 24
160 -3 217 -24 50 -76 100 -125 121 -56 23 -152 18 -212 -12z m165 -166 c15
-14 23 -33 23 -56 0 -31 -12 -47 -97 -133 -83 -85 -101 -99 -129 -99 -43 0
-74 33 -74 78 0 30 12 47 97 133 106 109 134 120 180 77z"/>
<path d="M3564 1815 c-61 -30 -232 -201 -264 -264 -18 -37 -21 -57 -18 -122 3
-67 7 -83 33 -120 17 -24 50 -57 74 -74 37 -26 53 -30 120 -33 65 -3 85 0 122
18 60 30 234 203 265 263 33 65 35 158 4 223 -58 120 -213 170 -336 109z m176
-175 c25 -47 13 -72 -87 -172 -84 -84 -102 -98 -130 -98 -43 0 -73 30 -73 73
0 28 14 46 98 129 53 52 104 98 112 100 23 7 69 -12 80 -32z"/>
</g>
</svg>
