<?xml version="1.0" standalone="no"?>
<!DOCTYPE svg PUBLIC "-//W3C//DTD SVG 20010904//EN"
 "http://www.w3.org/TR/2001/REC-SVG-20010904/DTD/svg10.dtd">
<svg version="1.0" xmlns="http://www.w3.org/2000/svg"
 width="512.000000pt" height="512.000000pt" viewBox="0 0 512.000000 512.000000"
 preserveAspectRatio="xMidYMid meet">
<metadata>
Created by potrace 1.16, written by Peter Selinger 2001-2019
</metadata>
<g transform="translate(0.000000,512.000000) scale(0.100000,-0.100000)"
fill="#000000" stroke="none">
<path d="M1434 5096 c-65 -30 -120 -85 -150 -150 -24 -51 -24 -52 -24 -438 l0
-388 -137 0 c-124 0 -143 -3 -189 -24 -65 -30 -120 -85 -150 -150 -24 -51 -24
-54 -24 -398 l0 -348 -173 0 c-190 0 -243 -9 -332 -60 -113 -64 -198 -169
-235 -289 -19 -61 -20 -94 -20 -851 0 -757 1 -790 20 -851 49 -157 180 -286
339 -333 46 -14 120 -16 478 -16 l423 0 0 -374 0 -373 26 -27 27 -26 1247 0
1247 0 27 26 26 27 0 373 0 374 423 0 c358 0 432 2 478 16 159 47 290 176 339
333 19 61 20 94 20 851 0 757 -1 790 -20 851 -37 120 -122 225 -235 289 -89
51 -142 60 -332 60 l-173 0 0 348 c0 344 0 347 -24 398 -30 65 -85 120 -150
150 -46 21 -65 24 -187 24 l-136 0 -6 58 c-2 32 -15 78 -27 103 -30 60 -747
777 -810 810 l-45 24 -745 3 -745 2 -51 -24z m1426 -541 l0 -365 29 -32 29
-33 371 -3 371 -3 0 -459 0 -460 -1100 0 -1100 0 2 829 c3 813 3 829 23 851
11 12 29 26 40 31 11 4 316 8 678 8 l657 1 0 -365z m430 -10 l225 -225 -228 0
-227 0 0 225 c0 124 1 225 3 225 1 0 103 -101 227 -225z m1375 -1556 c75 -14
120 -37 166 -86 82 -86 89 -129 89 -560 l0 -343 -2360 0 -2360 0 0 343 c0 431
7 474 89 560 45 48 81 68 151 83 75 17 4136 20 4225 3z m255 -1432 c0 -322
-11 -379 -89 -460 -71 -75 -149 -97 -347 -97 l-123 0 -3 193 c-3 176 -5 196
-26 238 -29 59 -82 112 -141 141 l-46 23 -1585 0 -1585 0 -46 -23 c-59 -29
-112 -82 -141 -141 -21 -42 -23 -62 -26 -238 l-3 -193 -123 0 c-198 0 -276 22
-347 97 -78 81 -89 138 -89 460 l0 243 2360 0 2360 0 0 -243z m-1260 -757 l0
-600 -1100 0 -1100 0 0 600 0 600 1100 0 1100 0 0 -600z"/>
<path d="M857 2785 c-86 -32 -160 -111 -187 -198 -18 -56 -9 -163 18 -218 28
-58 82 -112 141 -141 37 -19 63 -23 131 -23 68 0 94 4 131 23 59 29 112 82
141 141 33 66 33 196 0 262 -29 59 -82 113 -141 141 -57 28 -177 35 -234 13z
m173 -220 c35 -36 34 -95 -3 -132 -60 -61 -162 -19 -162 66 0 89 101 130 165
66z"/>
<path d="M1657 2785 c-86 -32 -160 -111 -187 -198 -18 -56 -9 -163 18 -218 28
-58 82 -112 141 -141 37 -19 63 -23 131 -23 68 0 94 4 131 23 59 29 112 82
141 141 33 66 33 196 0 262 -29 59 -82 113 -141 141 -57 28 -177 35 -234 13z
m173 -220 c35 -36 34 -95 -3 -132 -60 -61 -162 -19 -162 66 0 89 101 130 165
66z"/>
<path d="M3289 2571 c-23 -23 -29 -38 -29 -71 0 -91 106 -135 171 -71 64 65
20 171 -71 171 -33 0 -48 -6 -71 -29z"/>
<path d="M3689 2571 c-23 -23 -29 -38 -29 -71 0 -33 6 -48 29 -71 l29 -29 342
0 342 0 29 29 c23 23 29 38 29 71 0 33 -6 48 -29 71 l-29 29 -342 0 -342 0
-29 -29z"/>
<path d="M1924 1090 c-32 -13 -64 -59 -64 -91 0 -18 11 -41 29 -61 l29 -33
636 -3 635 -2 33 29 c27 24 33 36 33 71 0 35 -6 47 -33 71 l-32 29 -623 -1
c-342 0 -632 -4 -643 -9z"/>
<path d="M1924 690 c-32 -13 -64 -59 -64 -91 0 -18 11 -41 29 -61 l29 -33 636
-3 635 -2 33 29 c27 24 33 36 33 71 0 35 -6 47 -33 71 l-32 29 -623 -1 c-342
0 -632 -4 -643 -9z"/>
</g>
</svg>
