<?xml version="1.0" standalone="no"?>
<!DOCTYPE svg PUBLIC "-//W3C//DTD SVG 20010904//EN"
 "http://www.w3.org/TR/2001/REC-SVG-20010904/DTD/svg10.dtd">
<svg version="1.0" xmlns="http://www.w3.org/2000/svg"
 width="512.000000pt" height="512.000000pt" viewBox="0 0 512.000000 512.000000"
 preserveAspectRatio="xMidYMid meet">
<metadata>
Created by potrace 1.16, written by Peter Selinger 2001-2019
</metadata>
<g transform="translate(0.000000,512.000000) scale(0.100000,-0.100000)"
fill="#000000" stroke="none">
<path d="M1033 4509 c-130 -22 -246 -93 -325 -198 -54 -71 -84 -143 -98 -239
-7 -44 -10 -565 -8 -1557 l3 -1490 23 -66 c54 -161 183 -286 347 -336 57 -17
136 -18 1580 -18 1727 0 1589 -7 1728 85 105 68 177 164 214 285 17 57 18 136
18 1585 l0 1525 -22 71 c-51 162 -173 283 -343 340 -53 18 -122 19 -1560 20
-828 1 -1528 -2 -1557 -7z m1329 -793 c258 -50 469 -209 584 -441 63 -128 86
-224 86 -365 1 -74 -5 -139 -16 -183 -20 -83 -67 -200 -100 -247 l-24 -35 368
-370 c399 -401 402 -404 380 -486 -14 -53 -44 -85 -95 -105 -89 -34 -87 -36
-500 376 l-370 368 -35 -24 c-47 -33 -164 -80 -247 -100 -99 -24 -275 -22
-378 5 -263 69 -477 258 -570 506 -135 356 -7 759 308 974 171 116 407 166
609 127z"/>
<path d="M2095 3546 c-275 -52 -483 -270 -525 -550 -26 -171 31 -372 142 -502
131 -154 302 -234 503 -234 176 0 330 64 456 189 125 126 189 280 189 456 0
187 -56 321 -190 456 -70 72 -100 93 -170 127 -47 22 -105 45 -130 50 -78 19
-201 22 -275 8z"/>
</g>
</svg>
