<?xml version="1.0" standalone="no"?>
<!DOCTYPE svg PUBLIC "-//W3C//DTD SVG 20010904//EN"
 "http://www.w3.org/TR/2001/REC-SVG-20010904/DTD/svg10.dtd">
<svg version="1.0" xmlns="http://www.w3.org/2000/svg"
 width="225.000000pt" height="225.000000pt" viewBox="0 0 225.000000 225.000000"
 preserveAspectRatio="xMidYMid meet">

<g transform="translate(0.000000,225.000000) scale(0.100000,-0.100000)"
fill="#000000" stroke="none">
<path d="M1452 2198 c-6 -6 -12 -29 -12 -49 0 -47 -23 -55 -63 -22 -16 13 -36
23 -45 23 -19 0 -182 -159 -182 -177 0 -6 12 -25 26 -42 17 -21 23 -37 19 -51
-6 -20 -14 -20 -514 -20 l-508 0 -44 -23 c-27 -15 -52 -38 -66 -63 l-23 -39 0
-574 0 -574 25 -43 c16 -28 39 -49 68 -63 42 -20 58 -21 430 -21 l387 0 0 -75
0 -75 -83 0 c-69 0 -92 -4 -134 -25 -28 -15 -63 -42 -78 -61 -33 -43 -58 -113
-53 -151 l3 -28 520 0 520 0 3 28 c5 38 -20 108 -53 151 -15 19 -50 46 -78 61
-42 21 -65 25 -134 25 l-83 0 0 75 0 75 387 0 c372 0 388 1 430 21 29 14 52
35 68 63 l25 43 0 574 0 574 -23 39 c-29 51 -93 86 -158 86 -39 0 -51 4 -60
21 -9 18 -7 25 15 48 14 15 26 34 26 42 0 19 -161 179 -180 179 -7 0 -26 -12
-41 -26 -38 -36 -67 -21 -71 39 l-3 42 -125 3 c-89 2 -129 -1 -138 -10z m200
-85 c3 -34 8 -40 48 -60 58 -28 78 -28 107 -1 l24 22 51 -52 52 -51 -22 -24
c-27 -29 -27 -42 -2 -100 21 -47 35 -57 76 -57 24 0 25 -2 22 -67 l-3 -68 -39
-5 c-35 -5 -40 -9 -57 -55 -24 -63 -24 -74 1 -100 l20 -21 -50 -49 -50 -49
-23 22 c-24 23 -52 29 -62 13 -3 -5 -19 -12 -35 -16 -40 -9 -60 -30 -60 -66
l0 -29 -70 0 -70 0 0 35 c0 33 -3 37 -57 60 -52 23 -93 26 -93 5 0 -4 -8 -11
-17 -14 -11 -5 -30 7 -60 36 -24 23 -43 47 -43 52 0 5 10 20 21 33 l22 22 -25
58 c-23 54 -27 58 -61 61 l-37 3 0 70 c0 69 0 69 28 69 38 0 45 8 71 73 l24
58 -24 25 -23 24 49 50 49 50 21 -20 c27 -25 48 -24 105 3 40 20 45 26 48 60
l3 37 69 0 69 0 3 -37z m-562 -413 c0 -110 6 -120 69 -120 43 0 51 -33 17 -69
-14 -15 -26 -31 -26 -36 0 -13 172 -185 184 -185 6 0 22 12 37 26 37 36 69 26
69 -21 0 -57 17 -65 144 -65 74 0 116 4 124 12 7 7 12 29 12 49 0 51 28 61 71
25 17 -14 35 -26 41 -26 18 0 178 163 178 181 0 10 -10 30 -23 46 -31 38 -25
63 17 63 57 0 65 14 68 120 l3 94 35 -31 35 -31 3 -461 3 -461 -1026 0 -1026
0 3 459 c3 443 4 460 23 481 43 48 52 49 523 50 l442 0 0 -100z m1058 -1034
c-4 -82 -19 -108 -75 -132 -48 -21 -1848 -21 -1896 0 -56 24 -71 50 -75 132
l-4 74 1027 0 1027 0 -4 -74z m-918 -281 l0 -75 -105 0 -105 0 0 75 0 75 105
0 105 0 0 -75z m238 -150 c56 -24 112 -86 112 -125 0 -7 -144 -10 -455 -10
-311 0 -455 3 -455 10 0 38 55 100 110 124 52 23 634 23 688 1z"/>
<path d="M1525 1961 c-51 -13 -92 -39 -128 -81 -67 -78 -76 -198 -21 -287 109
-177 381 -137 440 64 20 68 11 128 -30 194 -51 86 -168 135 -261 110z m159
-95 c128 -97 83 -283 -77 -320 -44 -10 -108 12 -148 53 -118 118 -29 311 138
298 37 -2 62 -11 87 -31z"/>
<path d="M185 1667 c-3 -6 -4 -176 -3 -377 l3 -365 409 -3 c321 -2 411 0 418
10 9 15 11 708 2 732 -5 14 -51 16 -415 16 -319 0 -411 -3 -414 -13z m765 -87
l0 -40 -353 2 -352 3 -3 38 -3 37 355 0 356 0 0 -40z m0 -350 l0 -250 -355 0
-355 0 0 250 0 250 355 0 355 0 0 -250z"/>
<path d="M376 1301 c-31 -31 -56 -63 -56 -72 0 -8 25 -39 55 -69 l55 -54 22
22 22 22 -39 40 -39 40 42 43 42 43 -24 21 -24 21 -56 -57z"/>
<path d="M705 1330 c-18 -20 -18 -21 20 -60 l39 -40 -39 -40 -39 -40 22 -22
22 -22 55 54 c30 30 55 61 55 70 0 14 -98 120 -111 120 -3 0 -14 -9 -24 -20z"/>
<path d="M548 1238 c-9 -56 -16 -103 -15 -104 1 -1 15 -4 31 -6 l30 -3 18 99
c10 55 17 101 15 102 -1 1 -16 5 -32 8 l-31 7 -16 -103z"/>
<path d="M950 635 l0 -35 175 0 175 0 0 35 0 35 -175 0 -175 0 0 -35z"/>
</g>
</svg>
